<svg width="28" height="28" viewBox="0 0 28 28" fill="none" xmlns="http://www.w3.org/2000/svg">
<path fill-rule="evenodd" clip-rule="evenodd" d="M13.7085 18.847C13.2255 18.847 12.8335 18.455 12.8335 17.972V9.42383C12.8335 8.94083 13.2255 8.54883 13.7085 8.54883C14.1915 8.54883 14.5835 8.94083 14.5835 9.42383V17.972C14.5835 18.455 14.1915 18.847 13.7085 18.847Z" fill="#642D91"/>
<path fill-rule="evenodd" clip-rule="evenodd" d="M17.9861 14.5703H9.43091C8.94674 14.5703 8.55591 14.1783 8.55591 13.6953C8.55591 13.2123 8.94674 12.8203 9.43091 12.8203H17.9861C18.4691 12.8203 18.8611 13.2123 18.8611 13.6953C18.8611 14.1783 18.4691 14.5703 17.9861 14.5703Z" fill="#642D91"/>
<path fill-rule="evenodd" clip-rule="evenodd" d="M8.24142 2.91602C5.00742 2.91602 2.91675 5.12918 2.91675 8.55685V18.8585C2.91675 22.2862 5.00742 24.4994 8.24142 24.4994H19.1754C22.4106 24.4994 24.5001 22.2862 24.5001 18.8585V8.55685C24.5001 5.12918 22.4106 2.91602 19.1754 2.91602H8.24142ZM19.1754 26.2494H8.24142C4.00991 26.2494 1.16675 23.279 1.16675 18.8585V8.55685C1.16675 4.13635 4.00991 1.16602 8.24142 1.16602H19.1754C23.4069 1.16602 26.2501 4.13635 26.2501 8.55685V18.8585C26.2501 23.279 23.4069 26.2494 19.1754 26.2494Z" fill="#642D91"/>
</svg>
