<svg width="32" height="32" viewBox="0 0 32 32" fill="none" xmlns="http://www.w3.org/2000/svg">
<path d="M11.5785 31.9997C6.81597 31.9723 2.87646 22.2503 2.87646 17.2991C2.87646 9.21132 8.94365 7.4407 11.2819 7.4407C12.3357 7.4407 13.4608 7.85451 14.4533 8.2207C15.1473 8.47613 15.865 8.73982 16.2642 8.73982C16.5032 8.73982 17.0662 8.51551 17.5633 8.3187C18.6235 7.89663 19.9428 7.37207 21.479 7.37207C21.4818 7.37207 21.4855 7.37207 21.4882 7.37207C22.6353 7.37207 26.1134 7.62382 28.2045 10.7641L28.6943 11.5001L27.9893 12.0321C26.9823 12.7919 25.1448 14.1781 25.1448 16.9238C25.1448 20.1757 27.2258 21.4263 28.2255 22.0278C28.6668 22.2933 29.1237 22.5671 29.1237 23.1658C29.1237 23.5568 26.0035 31.9512 21.4726 31.9512C20.3639 31.9512 19.5802 31.6179 18.889 31.3241C18.1895 31.0265 17.5862 30.7702 16.5892 30.7702C16.0838 30.7702 15.4447 31.0091 14.7682 31.2628C13.8436 31.6078 12.7971 31.9997 11.6097 31.9997H11.5785Z" fill="#212121"/>
<path d="M21.9591 0C22.0771 4.25475 19.0343 7.2065 15.995 7.02138C15.4942 3.62594 19.0339 0 21.9591 0Z" fill="#212121"/>
</svg>
