<svg width="60" height="60" viewBox="0 0 60 60" fill="none" xmlns="http://www.w3.org/2000/svg">
<rect width="60" height="60" rx="30" fill="#F1DFFF"/>
<rect x="10" y="10" width="40" height="40" rx="20" fill="url(#paint0_linear_8409_8418)"/>
<path d="M39.0251 29.05V37C39.0251 37.55 38.8294 38.021 38.4381 38.413C38.0467 38.805 37.5757 39.0007 37.0251 39H23.0251C22.4751 39 22.0041 38.804 21.6121 38.412C21.2201 38.02 21.0247 37.5493 21.0261 37V29.05C20.6427 28.7 20.3471 28.25 20.1391 27.7C19.9311 27.15 19.9267 26.55 20.1261 25.9L21.1761 22.5C21.3094 22.0667 21.5471 21.7083 21.8891 21.425C22.2311 21.1417 22.6261 21 23.0741 21H36.9741C37.4241 21 37.8157 21.1377 38.1491 21.413C38.4824 21.6883 38.7241 22.0507 38.8741 22.5L39.9241 25.9C40.1241 26.55 40.1201 27.1417 39.9121 27.675C39.7041 28.2083 39.4091 28.6667 39.0251 29.05ZM32.2251 28C32.6751 28 33.0167 27.8457 33.2501 27.537C33.4834 27.2283 33.5751 26.8827 33.5251 26.5L32.9751 23H31.0251V26.7C31.0251 27.05 31.1417 27.3543 31.3751 27.613C31.6084 27.8717 31.8917 28.0007 32.2251 28ZM27.7251 28C28.1084 28 28.4211 27.8707 28.6631 27.612C28.9051 27.3533 29.0257 27.0493 29.0251 26.7V23H27.0751L26.5251 26.5C26.4584 26.9 26.5457 27.25 26.7871 27.55C27.0284 27.85 27.3411 28 27.7251 28ZM23.2751 28C23.5751 28 23.8377 27.8917 24.0631 27.675C24.2884 27.4583 24.4257 27.1833 24.4751 26.85L25.0251 23H23.0751L22.0751 26.35C21.9751 26.6833 22.0294 27.0417 22.2381 27.425C22.4467 27.8083 22.7924 28 23.2751 28ZM36.7751 28C37.2584 28 37.6084 27.8083 37.8251 27.425C38.0417 27.0417 38.0917 26.6833 37.9751 26.35L36.9251 23H35.0251L35.5751 26.85C35.6251 27.1833 35.7627 27.4583 35.9881 27.675C36.2134 27.8917 36.4757 28 36.7751 28Z" fill="white"/>
<defs>
<linearGradient id="paint0_linear_8409_8418" x1="50" y1="50" x2="2.40359" y2="36.1999" gradientUnits="userSpaceOnUse">
<stop stop-color="#683394"/>
<stop offset="1" stop-color="#854AB6"/>
</linearGradient>
</defs>
</svg>
