<svg width="28" height="28" viewBox="0 0 28 28" fill="none" xmlns="http://www.w3.org/2000/svg">
<path fill-rule="evenodd" clip-rule="evenodd" d="M7.38231 9.73873L8.08581 18.1061C8.13714 18.7501 8.66331 19.2331 9.30614 19.2331H9.31081H22.0403H22.0426C22.6505 19.2331 23.1696 18.7804 23.256 18.1796L24.3643 10.5274C24.39 10.3454 24.3445 10.1634 24.2336 10.0164C24.124 9.86823 23.963 9.77257 23.781 9.7469C23.5371 9.75623 13.4186 9.74223 7.38231 9.73873ZM9.30381 20.9831C7.76731 20.9831 6.46648 19.7837 6.34164 18.2496L5.27298 5.5399L3.51481 5.23657C3.03764 5.15257 2.71914 4.70107 2.80081 4.2239C2.88481 3.74673 3.34564 3.4364 3.81231 3.51107L6.23898 3.93107C6.62981 3.9999 6.92731 4.32424 6.96114 4.7209L7.23531 7.98874C23.8906 7.99574 23.9443 8.0039 24.0248 8.01324C24.6746 8.10774 25.2463 8.44724 25.636 8.9699C26.0256 9.4914 26.189 10.1342 26.0956 10.7782L24.9885 18.4292C24.7796 19.8852 23.515 20.9831 22.045 20.9831H22.0391H9.31314H9.30381Z" fill="#212121"/>
<path fill-rule="evenodd" clip-rule="evenodd" d="M20.1689 14.0508H16.9349C16.4507 14.0508 16.0599 13.6588 16.0599 13.1758C16.0599 12.6928 16.4507 12.3008 16.9349 12.3008H20.1689C20.6519 12.3008 21.0439 12.6928 21.0439 13.1758C21.0439 13.6588 20.6519 14.0508 20.1689 14.0508Z" fill="#212121"/>
<path fill-rule="evenodd" clip-rule="evenodd" d="M8.80191 24.1523C9.15308 24.1523 9.43658 24.4358 9.43658 24.787C9.43658 25.1382 9.15308 25.4228 8.80191 25.4228C8.44958 25.4228 8.16608 25.1382 8.16608 24.787C8.16608 24.4358 8.44958 24.1523 8.80191 24.1523Z" fill="#212121"/>
<mask id="mask0_1651_22873" style="mask-type:luminance" maskUnits="userSpaceOnUse" x="8" y="24" width="2" height="2">
<path fill-rule="evenodd" clip-rule="evenodd" d="M8.1655 24.787C8.1655 25.1393 8.449 25.424 8.8025 25.424C9.15366 25.424 9.43716 25.1393 9.43716 24.787C9.43716 24.4358 9.15366 24.1523 8.8025 24.1523C8.449 24.1523 8.1655 24.4358 8.1655 24.787Z" fill="white"/>
</mask>
<g mask="url(#mask0_1651_22873)">
<path fill-rule="evenodd" clip-rule="evenodd" d="M2.33333 31.2555H15.2705V18.3184H2.33333V31.2555Z" fill="#212121"/>
</g>
<path fill-rule="evenodd" clip-rule="evenodd" d="M8.80074 24.5478C8.66891 24.5478 8.56158 24.6552 8.56158 24.787C8.56158 25.0518 9.04108 25.0518 9.04108 24.787C9.04108 24.6552 8.93258 24.5478 8.80074 24.5478ZM8.80074 26.2978C7.96774 26.2978 7.29108 25.62 7.29108 24.787C7.29108 23.954 7.96774 23.2773 8.80074 23.2773C9.63374 23.2773 10.3116 23.954 10.3116 24.787C10.3116 25.62 9.63374 26.2978 8.80074 26.2978Z" fill="#212121"/>
<path fill-rule="evenodd" clip-rule="evenodd" d="M21.9623 24.1523C22.3134 24.1523 22.5981 24.4358 22.5981 24.787C22.5981 25.1382 22.3134 25.4228 21.9623 25.4228C21.6099 25.4228 21.3264 25.1382 21.3264 24.787C21.3264 24.4358 21.6099 24.1523 21.9623 24.1523Z" fill="#212121"/>
<mask id="mask1_1651_22873" style="mask-type:luminance" maskUnits="userSpaceOnUse" x="21" y="24" width="2" height="2">
<path fill-rule="evenodd" clip-rule="evenodd" d="M21.3267 24.787C21.3267 25.1393 21.6102 25.424 21.9625 25.424C22.3125 25.424 22.5983 25.1393 22.5983 24.787C22.5983 24.4358 22.3125 24.1523 21.9625 24.1523C21.6102 24.1523 21.3267 24.4358 21.3267 24.787Z" fill="white"/>
</mask>
<g mask="url(#mask1_1651_22873)">
<path fill-rule="evenodd" clip-rule="evenodd" d="M15.4933 31.2555H28.4317V18.3184H15.4933V31.2555Z" fill="#212121"/>
</g>
<path fill-rule="evenodd" clip-rule="evenodd" d="M21.9611 24.5478C21.8304 24.5478 21.7231 24.6552 21.7231 24.787C21.7243 25.0542 22.2026 25.0518 22.2014 24.787C22.2014 24.6552 22.0929 24.5478 21.9611 24.5478ZM21.9611 26.2978C21.1281 26.2978 20.4514 25.62 20.4514 24.787C20.4514 23.954 21.1281 23.2773 21.9611 23.2773C22.7953 23.2773 23.4731 23.954 23.4731 24.787C23.4731 25.62 22.7953 26.2978 21.9611 26.2978Z" fill="#212121"/>
</svg>
