<svg width="28" height="28" viewBox="0 0 28 28" fill="none" xmlns="http://www.w3.org/2000/svg">
<mask id="mask0_1651_22869" style="mask-type:luminance" maskUnits="userSpaceOnUse" x="2" y="3" width="25" height="24">
<path fill-rule="evenodd" clip-rule="evenodd" d="M2.33333 3.5H26.2179V26.2512H2.33333V3.5Z" fill="white"/>
</mask>
<g mask="url(#mask0_1651_22869)">
<path fill-rule="evenodd" clip-rule="evenodd" d="M4.46097 14.1436C6.09664 19.2326 12.5588 23.3475 14.2761 24.366C15.9993 23.337 22.5081 19.1766 24.0913 14.1483C25.1308 10.898 24.166 6.7808 20.3323 5.5453C18.475 4.94914 16.3085 5.31197 14.8128 6.4693C14.5001 6.70964 14.0661 6.7143 13.7511 6.4763C12.1668 5.28514 10.0971 4.9363 8.21064 5.5453C4.38281 6.77964 3.42147 10.8968 4.46097 14.1436ZM14.2773 26.2513C14.1326 26.2513 13.9891 26.2163 13.8585 26.1451C13.4933 25.9456 4.89147 21.2043 2.79497 14.678C2.79381 14.678 2.79381 14.6768 2.79381 14.6768C1.47781 10.5678 2.94314 5.40414 7.67397 3.8793C9.89531 3.16064 12.3161 3.4768 14.2738 4.7123C16.1708 3.51297 18.6908 3.18164 20.8678 3.8793C25.6033 5.40647 27.0733 10.569 25.7585 14.6768C23.7296 21.1285 15.0648 25.941 14.6973 26.1428C14.5666 26.2151 14.422 26.2513 14.2773 26.2513Z" fill="#212121"/>
</g>
<path fill-rule="evenodd" clip-rule="evenodd" d="M21.1793 12.395C20.7278 12.395 20.3451 12.0485 20.3078 11.5912C20.2308 10.6322 19.5891 9.8225 18.6756 9.52734C18.2148 9.378 17.9628 8.8845 18.111 8.426C18.2615 7.96634 18.7503 7.71667 19.2123 7.86134C20.8025 8.37584 21.9166 9.784 22.0531 11.4488C22.0916 11.9307 21.7335 12.353 21.2516 12.3915C21.2271 12.3938 21.2038 12.395 21.1793 12.395Z" fill="#212121"/>
</svg>
