<svg width="28" height="28" viewBox="0 0 28 28" fill="none" xmlns="http://www.w3.org/2000/svg">
<mask id="mask0_1651_22911" style="mask-type:luminance" maskUnits="userSpaceOnUse" x="2" y="3" width="24" height="22">
<path fill-rule="evenodd" clip-rule="evenodd" d="M2.33333 3.5H25.6827V24.7164H2.33333V3.5Z" fill="white"/>
</mask>
<g mask="url(#mask0_1651_22911)">
<path fill-rule="evenodd" clip-rule="evenodd" d="M14.0148 5.25C13.4595 5.25 12.9648 5.537 12.6871 6.01883L4.28948 20.678C4.01648 21.1563 4.01881 21.7268 4.29531 22.204C4.57181 22.6812 5.06648 22.967 5.61831 22.967H22.3985C22.9491 22.967 23.4438 22.6812 23.7203 22.204C23.998 21.7268 24.0003 21.1563 23.725 20.678L15.3425 6.01883C15.066 5.537 14.5713 5.25 14.0148 5.25ZM22.3985 24.717H5.61831C4.43531 24.717 3.37481 24.1057 2.78098 23.0813C2.18714 22.0582 2.18364 20.8343 2.77048 19.8088L11.1705 5.1485C11.7608 4.116 12.8236 3.5 14.0148 3.5H14.016C15.206 3.5 16.2711 4.11717 16.8615 5.15083L25.2451 19.8088C25.832 20.8343 25.8285 22.0582 25.2346 23.0813C24.6408 24.1057 23.5803 24.717 22.3985 24.717Z" fill="#212121"/>
</g>
<path fill-rule="evenodd" clip-rule="evenodd" d="M14.0045 16.5249C13.5215 16.5249 13.1295 16.1329 13.1295 15.6499V12.0332C13.1295 11.5502 13.5215 11.1582 14.0045 11.1582C14.4875 11.1582 14.8795 11.5502 14.8795 12.0332V15.6499C14.8795 16.1329 14.4875 16.5249 14.0045 16.5249Z" fill="#212121"/>
<path fill-rule="evenodd" clip-rule="evenodd" d="M14.0069 20.4154C13.3617 20.4154 12.8344 19.8939 12.8344 19.2487C12.8344 18.6035 13.3512 18.082 13.9952 18.082H14.0069C14.652 18.082 15.1735 18.6035 15.1735 19.2487C15.1735 19.8939 14.652 20.4154 14.0069 20.4154Z" fill="#212121"/>
</svg>
