<svg width="60" height="60" viewBox="0 0 60 60" fill="none" xmlns="http://www.w3.org/2000/svg">
<rect width="60" height="60" rx="30" fill="#F1DFFF"/>
<rect x="10" y="10" width="40" height="40" rx="20" fill="url(#paint0_linear_8409_3265)"/>
<path d="M25.617 26.712L28.822 24.384C29.1818 24.1207 29.6194 23.9855 30.065 24C30.6085 24.0136 31.1343 24.1961 31.5693 24.5223C32.0042 24.8485 32.3268 25.3021 32.492 25.82C32.678 26.403 32.848 26.797 33.002 27.001C33.4672 27.622 34.0708 28.126 34.7648 28.473C35.4588 28.82 36.2241 29.0004 37 29V31C35.9675 31.001 34.9476 30.7731 34.0137 30.3327C33.0798 29.8922 32.2551 29.2503 31.599 28.453L30.901 32.409L32.962 34.138L35.185 40.246L33.305 40.93L31.266 35.326L27.876 32.481C27.5976 32.2565 27.3846 31.9614 27.259 31.6265C27.1334 31.2916 27.0999 30.9292 27.162 30.577L27.671 27.692L26.994 28.184L24.867 31.112L23.249 29.936L25.6 26.7L25.617 26.712ZM31.5 23.5C30.9696 23.5 30.4609 23.2893 30.0858 22.9142C29.7107 22.5391 29.5 22.0304 29.5 21.5C29.5 20.9696 29.7107 20.4609 30.0858 20.0858C30.4609 19.7107 30.9696 19.5 31.5 19.5C32.0305 19.5 32.5392 19.7107 32.9142 20.0858C33.2893 20.4609 33.5 20.9696 33.5 21.5C33.5 22.0304 33.2893 22.5391 32.9142 22.9142C32.5392 23.2893 32.0305 23.5 31.5 23.5ZM28.53 36.681L25.316 40.511L23.784 39.226L26.759 35.68L27.505 33.5L29.296 35L28.53 36.681Z" fill="white"/>
<defs>
<linearGradient id="paint0_linear_8409_3265" x1="50" y1="50" x2="2.40359" y2="36.1999" gradientUnits="userSpaceOnUse">
<stop stop-color="#683394"/>
<stop offset="1" stop-color="#854AB6"/>
</linearGradient>
</defs>
</svg>
