<svg width="20" height="20" viewBox="0 0 20 20" fill="none" xmlns="http://www.w3.org/2000/svg">
<path fill-rule="evenodd" clip-rule="evenodd" d="M6.74805 10.0007C6.74805 11.7784 8.20333 13.2249 10.0001 13.2249C11.7887 13.2249 13.244 11.7784 13.244 10.0007C13.244 8.21479 11.7887 6.76833 10.0001 6.76833C8.20333 6.76833 6.74805 8.21479 6.74805 10.0007ZM14.7806 5.03903C16.2033 6.13802 17.4147 7.74611 18.2846 9.75823C18.3497 9.91176 18.3497 10.0895 18.2846 10.235C16.5448 14.2592 13.4472 16.6673 10.0001 16.6673H9.99195C6.55293 16.6673 3.45537 14.2592 1.71553 10.235C1.65049 10.0895 1.65049 9.91176 1.71553 9.75823C3.45537 5.73398 6.55293 3.33398 9.99195 3.33398H10.0001C11.7237 3.33398 13.3578 3.93196 14.7806 5.03903ZM10.0011 12.011C11.1149 12.011 12.0254 11.1059 12.0254 9.99887C12.0254 8.88372 11.1149 7.97867 10.0011 7.97867C9.9035 7.97867 9.80593 7.98675 9.7165 8.00291C9.68398 8.8918 8.95228 9.60291 8.04984 9.60291H8.00919C7.9848 9.73221 7.96854 9.8615 7.96854 9.99887C7.96854 11.1059 8.87911 12.011 10.0011 12.011Z" fill="#642D91"/>
</svg>
