<svg width="20" height="21" viewBox="0 0 20 21" fill="none" xmlns="http://www.w3.org/2000/svg">
<path fill-rule="evenodd" clip-rule="evenodd" d="M13.2077 2.4181C13.7335 2.4181 14.2585 2.49227 14.7577 2.65977C17.8335 3.65977 18.9419 7.03477 18.016 9.98477C17.491 11.4923 16.6327 12.8681 15.5085 13.9923C13.8994 15.5506 12.1335 16.9339 10.2327 18.1256L10.0244 18.2514L9.8077 18.1173C7.9002 16.9339 6.12436 15.5506 4.5002 13.9839C3.38353 12.8598 2.52436 11.4923 1.99103 9.98477C1.04936 7.03477 2.1577 3.65977 5.26686 2.64227C5.50853 2.55894 5.7577 2.5006 6.0077 2.4681H6.1077C6.34186 2.43394 6.57436 2.4181 6.8077 2.4181H6.89936C7.42436 2.43394 7.9327 2.5256 8.4252 2.6931H8.47436C8.5077 2.70894 8.5327 2.72644 8.54936 2.74227C8.73353 2.80144 8.9077 2.8681 9.07436 2.95977L9.39103 3.10144C9.46755 3.14224 9.55343 3.2046 9.62766 3.25849C9.67469 3.29264 9.71704 3.32339 9.74936 3.3431C9.76296 3.35113 9.77679 3.35919 9.79072 3.36733C9.86217 3.40904 9.9366 3.45249 9.99936 3.5006C10.9252 2.7931 12.0494 2.40977 13.2077 2.4181ZM15.4244 8.4181C15.766 8.40894 16.0577 8.13477 16.0827 7.78394V7.68477C16.1077 6.51727 15.4002 5.45977 14.3244 5.05143C13.9827 4.93393 13.6077 5.1181 13.4827 5.4681C13.366 5.8181 13.5494 6.20143 13.8994 6.3256C14.4335 6.5256 14.791 7.05143 14.791 7.63393V7.65977C14.7752 7.8506 14.8327 8.03477 14.9494 8.17643C15.066 8.3181 15.241 8.4006 15.4244 8.4181Z" fill="#642D91"/>
</svg>
