<svg width="20" height="22" viewBox="0 0 20 22" fill="none" xmlns="http://www.w3.org/2000/svg">
<path fill-rule="evenodd" clip-rule="evenodd" d="M7.41634 1.77734H12.558C14.8163 1.77734 16.6413 2.72845 16.6663 5.14623V18.6396C16.6663 18.7907 16.633 18.9418 16.5663 19.0751C16.458 19.2885 16.2747 19.4485 16.0497 19.5196C15.833 19.5907 15.5913 19.5551 15.3913 19.4307L9.99134 16.5507L4.58301 19.4307C4.45884 19.5009 4.31634 19.5462 4.17467 19.5462C3.70801 19.5462 3.33301 19.1373 3.33301 18.6396V5.14623C3.33301 2.72845 5.16634 1.77734 7.41634 1.77734ZM6.84967 8.55068H13.1247C13.483 8.55068 13.7747 8.23868 13.7747 7.84845C13.7747 7.45734 13.483 7.14623 13.1247 7.14623H6.84967C6.49134 7.14623 6.19967 7.45734 6.19967 7.84845C6.19967 8.23868 6.49134 8.55068 6.84967 8.55068Z" fill="#642D91"/>
</svg>
