<svg width="20" height="21" viewBox="0 0 20 21" fill="none" xmlns="http://www.w3.org/2000/svg">
<path fill-rule="evenodd" clip-rule="evenodd" d="M3.78366 2H6.60033C7.77533 2 8.71699 2.95833 8.71699 4.13417V6.975C8.71699 8.15833 7.77533 9.10833 6.60033 9.10833H3.78366C2.61699 9.10833 1.66699 8.15833 1.66699 6.975V4.13417C1.66699 2.95833 2.61699 2 3.78366 2ZM3.78366 11.5581H6.60033C7.77533 11.5581 8.71699 12.5089 8.71699 13.6922V16.5331C8.71699 17.7081 7.77533 18.6664 6.60033 18.6664H3.78366C2.61699 18.6664 1.66699 17.7081 1.66699 16.5331V13.6922C1.66699 12.5089 2.61699 11.5581 3.78366 11.5581ZM16.2171 2H13.4004C12.2254 2 11.2837 2.95833 11.2837 4.13417V6.975C11.2837 8.15833 12.2254 9.10833 13.4004 9.10833H16.2171C17.3837 9.10833 18.3337 8.15833 18.3337 6.975V4.13417C18.3337 2.95833 17.3837 2 16.2171 2ZM13.4004 11.5581H16.2171C17.3837 11.5581 18.3337 12.5089 18.3337 13.6922V16.5331C18.3337 17.7081 17.3837 18.6664 16.2171 18.6664H13.4004C12.2254 18.6664 11.2837 17.7081 11.2837 16.5331V13.6922C11.2837 12.5089 12.2254 11.5581 13.4004 11.5581Z" fill="#642D91"/>
</svg>
