<svg width="20" height="21" viewBox="0 0 20 21" fill="none" xmlns="http://www.w3.org/2000/svg">
<path fill-rule="evenodd" clip-rule="evenodd" d="M5.20817 3.25C2.9165 3.25 2.9165 3.42333 2.9165 5.54167V5.5625C2.9165 6.485 2.9165 7.15167 3.14234 7.43333C3.36317 7.70667 4.019 7.83333 5.20817 7.83333C6.39734 7.83333 7.05317 7.70583 7.274 7.4325C7.49984 7.15167 7.49984 6.485 7.49984 5.56167C7.49984 3.42333 7.49984 3.25 5.20817 3.25ZM5.20817 9.08333C3.80317 9.08333 2.749 8.93583 2.16984 8.21667C1.6665 7.5925 1.6665 6.74083 1.6665 5.5625L2.2915 5.54167H1.6665C1.6665 3.15 1.81734 2 5.20817 2C8.599 2 8.74984 3.15 8.74984 5.54167C8.74984 6.74 8.74984 7.5925 8.2465 8.21667C7.66734 8.93583 6.61317 9.08333 5.20817 9.08333Z" fill="#9E9E9E"/>
<path fill-rule="evenodd" clip-rule="evenodd" d="M14.3747 3.25C12.083 3.25 12.083 3.42333 12.083 5.54167V5.5625C12.083 6.485 12.083 7.15167 12.3088 7.43333C12.5297 7.70667 13.1855 7.83333 14.3747 7.83333C15.5638 7.83333 16.2197 7.70583 16.4405 7.4325C16.6663 7.15167 16.6663 6.485 16.6663 5.56167C16.6663 3.42333 16.6663 3.25 14.3747 3.25ZM14.3747 9.08333C12.9697 9.08333 11.9155 8.93583 11.3363 8.21667C10.833 7.5925 10.833 6.74083 10.833 5.5625L11.458 5.54167H10.833C10.833 3.15 10.9838 2 14.3747 2C17.7655 2 17.9163 3.15 17.9163 5.54167C17.9163 6.74 17.9163 7.5925 17.413 8.21667C16.8338 8.93583 15.7797 9.08333 14.3747 9.08333Z" fill="#9E9E9E"/>
<path fill-rule="evenodd" clip-rule="evenodd" d="M5.20817 12.416C2.9165 12.416 2.9165 12.5893 2.9165 14.7077V14.7285C2.9165 15.651 2.9165 16.3177 3.14234 16.5993C3.36317 16.8727 4.019 16.9993 5.20817 16.9993C6.39734 16.9993 7.05317 16.8718 7.274 16.5985C7.49984 16.3177 7.49984 15.651 7.49984 14.7277C7.49984 12.5893 7.49984 12.416 5.20817 12.416ZM5.20817 18.2493C3.80317 18.2493 2.749 18.1018 2.16984 17.3827C1.6665 16.7585 1.6665 15.9068 1.6665 14.7285L2.2915 14.7077H1.6665C1.6665 12.316 1.81734 11.166 5.20817 11.166C8.599 11.166 8.74984 12.316 8.74984 14.7077C8.74984 15.906 8.74984 16.7585 8.2465 17.3827C7.66734 18.1018 6.61317 18.2493 5.20817 18.2493Z" fill="#9E9E9E"/>
<path fill-rule="evenodd" clip-rule="evenodd" d="M14.3747 12.416C12.083 12.416 12.083 12.5893 12.083 14.7077V14.7285C12.083 15.651 12.083 16.3177 12.3088 16.5993C12.5297 16.8727 13.1855 16.9993 14.3747 16.9993C15.5638 16.9993 16.2197 16.8718 16.4405 16.5985C16.6663 16.3177 16.6663 15.651 16.6663 14.7277C16.6663 12.5893 16.6663 12.416 14.3747 12.416ZM14.3747 18.2493C12.9697 18.2493 11.9155 18.1018 11.3363 17.3827C10.833 16.7585 10.833 15.9068 10.833 14.7285L11.458 14.7077H10.833C10.833 12.316 10.9838 11.166 14.3747 11.166C17.7655 11.166 17.9163 12.316 17.9163 14.7077C17.9163 15.906 17.9163 16.7585 17.413 17.3827C16.8338 18.1018 15.7797 18.2493 14.3747 18.2493Z" fill="#9E9E9E"/>
</svg>
