<svg width="28" height="28" viewBox="0 0 28 28" fill="none" xmlns="http://www.w3.org/2000/svg">
<mask id="mask0_1651_22903" style="mask-type:luminance" maskUnits="userSpaceOnUse" x="2" y="2" width="24" height="24">
<path fill-rule="evenodd" clip-rule="evenodd" d="M2.33333 2.33398H25.6665V25.6673H2.33333V2.33398Z" fill="white"/>
</mask>
<g mask="url(#mask0_1651_22903)">
<path fill-rule="evenodd" clip-rule="evenodd" d="M8.94133 4.08398C5.99083 4.08398 4.08333 6.10582 4.08333 9.23598V18.7653C4.08333 21.8955 5.99083 23.9173 8.94133 23.9173H19.054C22.008 23.9173 23.9167 21.8955 23.9167 18.7653V9.23598C23.9167 6.10582 22.008 4.08398 19.0563 4.08398H8.94133ZM19.054 25.6673H8.94133C4.98866 25.6673 2.33333 22.893 2.33333 18.7653V9.23598C2.33333 5.10832 4.98866 2.33398 8.94133 2.33398H19.0563C23.0102 2.33398 25.6667 5.10832 25.6667 9.23598V18.7653C25.6667 22.893 23.0102 25.6673 19.054 25.6673Z" fill="#212121"/>
</g>
<path fill-rule="evenodd" clip-rule="evenodd" d="M13.993 19.5417C13.51 19.5417 13.118 19.1497 13.118 18.6667V14C13.118 13.517 13.51 13.125 13.993 13.125C14.476 13.125 14.868 13.517 14.868 14V18.6667C14.868 19.1497 14.476 19.5417 13.993 19.5417Z" fill="#212121"/>
<path fill-rule="evenodd" clip-rule="evenodd" d="M13.9987 10.7396C13.3536 10.7396 12.8262 10.2181 12.8262 9.57292C12.8262 8.92775 13.3431 8.40625 13.9871 8.40625H13.9987C14.6439 8.40625 15.1654 8.92775 15.1654 9.57292C15.1654 10.2181 14.6439 10.7396 13.9987 10.7396Z" fill="#212121"/>
</svg>
