<svg width="20" height="21" viewBox="0 0 20 21" fill="none" xmlns="http://www.w3.org/2000/svg">
<path fill-rule="evenodd" clip-rule="evenodd" d="M6.50833 2H13.4925C16.0667 2 17.5 3.48333 17.5 6.025V14.6333C17.5 17.2167 16.0667 18.6667 13.4925 18.6667H6.50833C3.975 18.6667 2.5 17.2167 2.5 14.6333V6.025C2.5 3.48333 3.975 2 6.50833 2ZM6.73333 5.88333V5.875H9.22417C9.58333 5.875 9.875 6.16667 9.875 6.52417C9.875 6.89167 9.58333 7.18333 9.22417 7.18333H6.73333C6.37417 7.18333 6.08333 6.89167 6.08333 6.53333C6.08333 6.175 6.37417 5.88333 6.73333 5.88333ZM6.73333 10.95H13.2667C13.625 10.95 13.9167 10.6583 13.9167 10.3C13.9167 9.94167 13.625 9.64917 13.2667 9.64917H6.73333C6.37417 9.64917 6.08333 9.94167 6.08333 10.3C6.08333 10.6583 6.37417 10.95 6.73333 10.95ZM6.73333 14.7583H13.2667C13.5992 14.725 13.85 14.4408 13.85 14.1083C13.85 13.7667 13.5992 13.4833 13.2667 13.45H6.73333C6.48333 13.425 6.24167 13.5417 6.10833 13.7583C5.975 13.9667 5.975 14.2417 6.10833 14.4583C6.24167 14.6667 6.48333 14.7917 6.73333 14.7583Z" fill="#642D91"/>
</svg>
