<svg width="20" height="21" viewBox="0 0 20 21" fill="none" xmlns="http://www.w3.org/2000/svg">
<path fill-rule="evenodd" clip-rule="evenodd" d="M13.0967 14.4785H7.08008C6.73508 14.4785 6.45508 14.1985 6.45508 13.8535C6.45508 13.5085 6.73508 13.2285 7.08008 13.2285H13.0967C13.4417 13.2285 13.7217 13.5085 13.7217 13.8535C13.7217 14.1985 13.4417 14.4785 13.0967 14.4785Z" fill="#9E9E9E"/>
<path fill-rule="evenodd" clip-rule="evenodd" d="M13.0967 10.9883H7.08008C6.73508 10.9883 6.45508 10.7083 6.45508 10.3633C6.45508 10.0183 6.73508 9.73828 7.08008 9.73828H13.0967C13.4417 9.73828 13.7217 10.0183 13.7217 10.3633C13.7217 10.7083 13.4417 10.9883 13.0967 10.9883Z" fill="#9E9E9E"/>
<path fill-rule="evenodd" clip-rule="evenodd" d="M9.37494 7.50781H7.0791C6.7341 7.50781 6.4541 7.22781 6.4541 6.88281C6.4541 6.53781 6.7341 6.25781 7.0791 6.25781H9.37494C9.71994 6.25781 9.99994 6.53781 9.99994 6.88281C9.99994 7.22781 9.71994 7.50781 9.37494 7.50781Z" fill="#9E9E9E"/>
<mask id="mask0_1408_33264" style="mask-type:luminance" maskUnits="userSpaceOnUse" x="2" y="2" width="16" height="17">
<path fill-rule="evenodd" clip-rule="evenodd" d="M2.5 2H17.6372V18.5915H2.5V2Z" fill="white"/>
</mask>
<g mask="url(#mask0_1408_33264)">
<path fill-rule="evenodd" clip-rule="evenodd" d="M13.2575 3.25L6.85 3.25333C4.91 3.265 3.75 4.465 3.75 6.46417V14.1275C3.75 16.14 4.92083 17.3417 6.88 17.3417L13.2875 17.3392C15.2275 17.3275 16.3875 16.1258 16.3875 14.1275V6.46417C16.3875 4.45167 15.2175 3.25 13.2575 3.25ZM6.88083 18.5917C4.26083 18.5917 2.5 16.7975 2.5 14.1275V6.46417C2.5 3.77 4.20583 2.01917 6.84583 2.00333L13.2567 2H13.2575C15.8775 2 17.6375 3.79417 17.6375 6.46417V14.1275C17.6375 16.8208 15.9317 18.5725 13.2917 18.5892L6.88083 18.5917Z" fill="#9E9E9E"/>
</g>
</svg>
