<svg width="154" height="155" viewBox="0 0 154 155" fill="none" xmlns="http://www.w3.org/2000/svg">
<path d="M134.75 71.2496C133.048 71.2496 131.416 71.9257 130.213 73.129C129.009 74.3324 128.333 75.9645 128.333 77.6663C128.41 89.6849 124.293 101.354 116.691 110.664C109.09 119.973 98.48 126.341 86.6889 128.67C74.8978 130.999 62.6637 129.143 52.0937 123.422C41.5237 117.701 33.2794 108.474 28.7808 97.3286C24.2822 86.1834 23.8109 73.8183 27.4481 62.363C31.0852 50.9077 38.6031 41.0793 48.707 34.5705C58.8109 28.0618 70.8682 25.2801 82.8023 26.7046C94.7365 28.129 105.8 33.6705 114.088 42.3746H98.6883C96.9865 42.3746 95.3544 43.0507 94.1511 44.254C92.9477 45.4574 92.2717 47.0895 92.2717 48.7913C92.2717 50.4931 92.9477 52.1252 94.1511 53.3286C95.3544 54.5319 96.9865 55.208 98.6883 55.208H127.756C129.458 55.208 131.09 54.5319 132.293 53.3286C133.496 52.1252 134.173 50.4931 134.173 48.7913V19.9163C134.173 18.2145 133.496 16.5824 132.293 15.379C131.09 14.1757 129.458 13.4996 127.756 13.4996C126.054 13.4996 124.422 14.1757 123.219 15.379C122.015 16.5824 121.339 18.2145 121.339 19.9163V31.2738C110.653 21.0588 96.7681 14.8468 82.0308 13.6878C67.2934 12.5288 52.6079 16.4939 40.4566 24.9129C28.3053 33.3319 19.4336 45.6882 15.3411 59.8934C11.2487 74.0985 12.1866 89.2809 17.9962 102.874C23.8059 116.468 34.1309 127.638 47.226 134.498C60.3211 141.357 75.383 143.485 89.8657 140.521C104.348 137.557 117.363 129.683 126.711 118.23C136.058 106.778 141.165 92.4492 141.167 77.6663C141.167 75.9645 140.491 74.3324 139.287 73.129C138.084 71.9257 136.452 71.2496 134.75 71.2496Z" fill="#9E9E9E"/>
</svg>
