<svg width="20" height="20" viewBox="0 0 20 20" fill="none" xmlns="http://www.w3.org/2000/svg">
<path fill-rule="evenodd" clip-rule="evenodd" d="M10.1282 13.866L12.4962 11.4743C12.7355 11.2243 12.7355 10.8327 12.4879 10.591C12.2487 10.3493 11.8609 10.3493 11.6216 10.591L10.3097 11.9243V7.90768C10.3097 7.55768 10.0375 7.28268 9.69917 7.28268C9.36089 7.28268 9.08036 7.55768 9.08036 7.90768V11.9243L7.76848 10.591C7.5292 10.3493 7.14141 10.3493 6.90214 10.591C6.66287 10.8327 6.66287 11.2243 6.90214 11.4743L9.26188 13.866C9.31963 13.9243 9.38564 13.966 9.4599 13.9993C9.53415 14.0327 9.61666 14.0493 9.69917 14.0493C9.78168 14.0493 9.85594 14.0327 9.93019 13.9993C10.0045 13.966 10.0705 13.9243 10.1282 13.866ZM16.1071 7.52069C16.3011 7.51845 16.5122 7.51602 16.7041 7.51602C16.9186 7.51602 17.0837 7.68268 17.0837 7.89102V14.591C17.0837 16.6577 15.417 18.3327 13.3708 18.3327H6.81138C4.65792 18.3327 2.91699 16.5743 2.91699 14.4077V5.42435C2.91699 3.35768 4.57541 1.66602 6.63811 1.66602H11.0441C11.2503 1.66602 11.4236 1.84102 11.4236 2.04935V4.73268C11.4236 6.25768 12.6612 7.50768 14.1794 7.51602C14.5281 7.51602 14.8401 7.51866 15.1125 7.52097C15.3235 7.52276 15.5107 7.52435 15.6728 7.52435C15.7902 7.52435 15.9425 7.52259 16.1071 7.52069ZM16.3374 6.30443C15.66 6.30693 14.8605 6.30443 14.2854 6.2986C13.3728 6.2986 12.6212 5.53943 12.6212 4.61777V2.4211C12.6212 2.06193 13.0527 1.8836 13.2986 2.14277C13.9343 2.80973 14.9076 3.83205 15.7299 4.69583C16.0625 5.04511 16.3703 5.36847 16.6212 5.63193C16.8621 5.88443 16.6856 6.3036 16.3374 6.30443Z" fill="#642D91"/>
</svg>
