<svg width="28" height="28" viewBox="0 0 28 28" fill="none" xmlns="http://www.w3.org/2000/svg">
<mask id="mask0_1651_22889" style="mask-type:luminance" maskUnits="userSpaceOnUse" x="4" y="2" width="21" height="25">
<path fill-rule="evenodd" clip-rule="evenodd" d="M4.66689 2.33398H24.4615V26.0822H4.66689V2.33398Z" fill="white"/>
</mask>
<g mask="url(#mask0_1651_22889)">
<path fill-rule="evenodd" clip-rule="evenodd" d="M14.5642 4.08398C13.5749 4.08398 7.3332 6.28198 6.61337 6.88282C6.40104 7.09632 6.39287 7.46732 6.43837 9.95115C6.45937 11.1482 6.48854 12.7745 6.48854 15.0262C6.48854 21.094 13.1642 23.7878 14.563 24.2836C15.9607 23.7855 22.6399 21.0765 22.6399 15.0262C22.6399 12.7722 22.669 11.1447 22.6912 9.94765C22.7355 7.46615 22.7274 7.09515 22.5022 6.87115C21.7964 6.28198 15.5535 4.08398 14.5642 4.08398ZM14.5642 26.0827C14.479 26.0827 14.3939 26.071 14.311 26.0453C13.9202 25.9275 4.73854 23.0551 4.73854 15.0262C4.73854 12.7896 4.70937 11.1715 4.68837 9.98382C4.6347 7.01698 4.62304 6.39865 5.38954 5.63332C6.30537 4.71515 13.2412 2.33398 14.5642 2.33398C15.886 2.33398 22.8219 4.71515 23.74 5.63332C24.5054 6.39865 24.4937 7.01698 24.44 9.98032C24.419 11.168 24.3899 12.7861 24.3899 15.0262C24.3899 23.0551 15.2082 25.9275 14.8174 26.0453C14.7345 26.071 14.6494 26.0827 14.5642 26.0827Z" fill="#212121"/>
</g>
<path fill-rule="evenodd" clip-rule="evenodd" d="M13.7399 16.9403C13.5078 16.9403 13.2849 16.8482 13.1204 16.6837L10.9131 14.474C10.5724 14.1322 10.5724 13.5768 10.9143 13.2362C11.2549 12.8943 11.8103 12.8943 12.1521 13.2362L13.7399 14.8263L17.6693 10.897C18.0111 10.5552 18.5641 10.5552 18.9059 10.897C19.2478 11.2388 19.2478 11.793 18.9059 12.1348L14.3583 16.6837C14.1949 16.8482 13.9721 16.9403 13.7399 16.9403Z" fill="#212121"/>
</svg>
