<svg width="28" height="28" viewBox="0 0 28 28" fill="none" xmlns="http://www.w3.org/2000/svg">
<path fill-rule="evenodd" clip-rule="evenodd" d="M13.7082 5.25C13.6021 5.25 13.3407 5.27917 13.2019 5.55683L11.0716 9.81633C10.7344 10.4895 10.0846 10.9573 9.33323 11.0647L4.5639 11.7518C4.2489 11.7973 4.14156 12.0307 4.1089 12.1287C4.07973 12.2232 4.03306 12.4635 4.25006 12.6712L7.69873 15.9845C8.24823 16.513 8.4979 17.2748 8.36723 18.0203L7.55523 22.6987C7.50506 22.9915 7.68823 23.1618 7.7699 23.2202C7.85623 23.2855 8.08723 23.415 8.37306 23.2657L12.6372 21.0548C13.3092 20.7083 14.1096 20.7083 14.7792 21.0548L19.0422 23.2645C19.3292 23.4127 19.5602 23.2832 19.6477 23.2202C19.7294 23.1618 19.9126 22.9915 19.8624 22.6987L19.0481 18.0203C18.9174 17.2748 19.1671 16.513 19.7166 15.9845L23.1652 12.6712C23.3834 12.4635 23.3367 12.222 23.3064 12.1287C23.2749 12.0307 23.1676 11.7973 22.8526 11.7518L18.0832 11.0647C17.3331 10.9573 16.6832 10.4895 16.3461 9.81517L14.2134 5.55683C14.0757 5.27917 13.8144 5.25 13.7082 5.25ZM8.10473 25.0833C7.6229 25.0833 7.14456 24.9317 6.73506 24.633C6.02806 24.115 5.68156 23.2598 5.83206 22.3988L6.64406 17.7205C6.6744 17.5467 6.6149 17.3705 6.48656 17.2468L3.0379 13.9335C2.40323 13.3257 2.17573 12.4273 2.44406 11.5932C2.71473 10.7497 3.43106 10.1465 4.31423 10.0205L9.08356 9.33333C9.2679 9.30767 9.42656 9.1945 9.5059 9.0335L11.6374 4.77283C12.0306 3.98767 12.8239 3.5 13.7082 3.5C14.5926 3.5 15.3859 3.98767 15.7791 4.77283L17.9117 9.03233C17.9922 9.1945 18.1497 9.30767 18.3329 9.33333L23.1022 10.0205C23.9854 10.1465 24.7017 10.7497 24.9724 11.5932C25.2407 12.4273 25.0121 13.3257 24.3774 13.9335L20.9287 17.2468C20.8004 17.3705 20.7421 17.5467 20.7724 17.7193L21.5856 22.3988C21.7349 23.261 21.3884 24.1162 20.6802 24.633C19.9627 25.1592 19.0282 25.2303 18.2361 24.8173L13.9742 22.6088C13.8074 22.5225 13.6079 22.5225 13.4411 22.6088L9.17923 24.8185C8.83856 24.9958 8.47106 25.0833 8.10473 25.0833Z" fill="#212121"/>
</svg>
