<svg width="28" height="28" viewBox="0 0 28 28" fill="none" xmlns="http://www.w3.org/2000/svg">
<path d="M19.6461 6.76172C20.0891 6.76172 20.4552 7.0909 20.5132 7.51799L20.5211 7.63672V23.5241C20.5211 24.0074 20.1294 24.3991 19.6461 24.3991C19.2032 24.3991 18.8371 24.0699 18.7791 23.6429L18.7711 23.5241V7.63672C18.7711 7.15347 19.1629 6.76172 19.6461 6.76172Z" fill="#212121"/>
<path d="M23.7833 18.1288C24.1242 17.7863 24.6782 17.785 25.0207 18.1259C25.3321 18.4359 25.3614 18.9219 25.1081 19.265L25.0236 19.3634L20.2662 24.1428C19.9552 24.4552 19.4673 24.4836 19.1241 24.228L19.0259 24.1428L14.2685 19.3634C13.9275 19.0209 13.9288 18.4669 14.2713 18.1259C14.5827 17.816 15.0689 17.7889 15.4108 18.0439L15.5088 18.1288L19.6455 22.2845L23.7833 18.1288Z" fill="#212121"/>
<path d="M8.06296 3.5957C8.50594 3.5957 8.87203 3.92488 8.92997 4.35197L8.93796 4.4707V20.3581C8.93796 20.8414 8.54621 21.2331 8.06296 21.2331C7.61998 21.2331 7.25388 20.9039 7.19595 20.4768L7.18796 20.3581V4.4707C7.18796 3.98745 7.57971 3.5957 8.06296 3.5957Z" fill="#212121"/>
<path d="M7.44294 3.85342C7.75388 3.54104 8.24184 3.51264 8.58496 3.76822L8.68323 3.85342L13.4406 8.63286C13.7816 8.97536 13.7803 9.52938 13.4378 9.87029C13.1264 10.1802 12.6402 10.2073 12.2983 9.95238L12.2003 9.86743L8.06283 5.71048L3.92583 9.86743C3.6159 10.1788 3.12986 10.2082 2.78673 9.95479L2.68839 9.87029C2.37703 9.56037 2.34767 9.07433 2.60104 8.73119L2.68553 8.63286L7.44294 3.85342Z" fill="#212121"/>
</svg>
