<svg width="32" height="32" viewBox="0 0 32 32" fill="none" xmlns="http://www.w3.org/2000/svg">
<path fill-rule="evenodd" clip-rule="evenodd" d="M23.6917 11.1757H29.3332C29.3332 6.64612 26.6191 4 22.0206 4H9.9791C5.38058 4 2.6665 6.64612 2.6665 11.118V20.882C2.6665 25.3539 5.38058 28 9.9791 28H22.0206C26.6191 28 29.3332 25.3539 29.3332 20.882V20.4661H23.6917C21.0735 20.4661 18.9509 18.3967 18.9509 15.844C18.9509 13.2913 21.0735 11.222 23.6917 11.222V11.1757ZM23.6917 13.1632H28.3376C28.8874 13.1632 29.3332 13.5978 29.3332 14.1338V17.5079C29.3268 18.0414 28.8848 18.4723 28.3376 18.4786H23.7984C22.4729 18.496 21.3138 17.6112 21.0132 16.3524C20.8626 15.5711 21.074 14.7648 21.5906 14.1496C22.1072 13.5345 22.8763 13.1734 23.6917 13.1632ZM23.8932 16.7106H24.3317C24.8946 16.7106 25.3509 16.2657 25.3509 15.7169C25.3509 15.1681 24.8946 14.7232 24.3317 14.7232H23.8932C23.6239 14.7201 23.3646 14.8222 23.1732 15.0067C22.9817 15.1912 22.8739 15.4428 22.8739 15.7053C22.8739 16.2561 23.3283 16.7043 23.8932 16.7106ZM8.98354 11.1757H16.5095C17.0724 11.1757 17.5287 10.7308 17.5287 10.182C17.5287 9.63317 17.0724 9.18825 16.5095 9.18825H8.98354C8.42522 9.18822 7.97077 9.62613 7.96428 10.1704C7.96424 10.7212 8.41871 11.1694 8.98354 11.1757Z" fill="#642D91"/>
</svg>
