<svg width="28" height="28" viewBox="0 0 28 28" fill="none" xmlns="http://www.w3.org/2000/svg">
<path fill-rule="evenodd" clip-rule="evenodd" d="M25.5368 18.5446H20.8141C18.601 18.5446 16.7996 16.7445 16.7985 14.5325C16.7985 12.3181 18.5998 10.5168 20.8141 10.5156H25.5368C26.0198 10.5156 26.4118 10.9076 26.4118 11.3906C26.4118 11.8736 26.0198 12.2656 25.5368 12.2656H20.8141C19.5646 12.2668 18.5485 13.283 18.5485 14.5313C18.5485 15.7785 19.5658 16.7946 20.8141 16.7946H25.5368C26.0198 16.7946 26.4118 17.1866 26.4118 17.6696C26.4118 18.1526 26.0198 18.5446 25.5368 18.5446Z" fill="#212121"/>
<path fill-rule="evenodd" clip-rule="evenodd" d="M21.348 15.334H20.984C20.501 15.334 20.109 14.942 20.109 14.459C20.109 13.976 20.501 13.584 20.984 13.584H21.348C21.831 13.584 22.223 13.976 22.223 14.459C22.223 14.942 21.831 15.334 21.348 15.334Z" fill="#212121"/>
<mask id="mask0_1651_22865" style="mask-type:luminance" maskUnits="userSpaceOnUse" x="2" y="3" width="25" height="23">
<path fill-rule="evenodd" clip-rule="evenodd" d="M2.33333 3.5H26.4117V25.8684H2.33333V3.5Z" fill="white"/>
</mask>
<g mask="url(#mask0_1651_22865)">
<path fill-rule="evenodd" clip-rule="evenodd" d="M9.33052 5.25C6.43719 5.25 4.08286 7.60433 4.08286 10.4977V18.8708C4.08286 21.7642 6.43719 24.1185 9.33052 24.1185H19.4152C22.3085 24.1185 24.6617 21.7642 24.6617 18.8708V10.4977C24.6617 7.60433 22.3085 5.25 19.4152 5.25H9.33052ZM19.4152 25.8685H9.33052C5.47236 25.8685 2.33286 22.729 2.33286 18.8708V10.4977C2.33286 6.63833 5.47236 3.5 9.33052 3.5H19.4152C23.2734 3.5 26.4117 6.63833 26.4117 10.4977V18.8708C26.4117 22.729 23.2734 25.8685 19.4152 25.8685Z" fill="#212121"/>
</g>
<path fill-rule="evenodd" clip-rule="evenodd" d="M14.7987 10.5449H8.49986C8.01686 10.5449 7.62486 10.1529 7.62486 9.66992C7.62486 9.18692 8.01686 8.79492 8.49986 8.79492H14.7987C15.2817 8.79492 15.6737 9.18692 15.6737 9.66992C15.6737 10.1529 15.2817 10.5449 14.7987 10.5449Z" fill="#212121"/>
</svg>
